<svg width="696" height="148" fill="none" xmlns="http://www.w3.org/2000/svg"><path d="M405.849 74.25c9.222 0 16.352 2.775 21.389 8.325 5.124 5.55 7.685 13.065 7.685 22.543V147h-28.306v-38.296c0-3.074-.939-5.465-2.817-7.173-1.794-1.793-4.227-2.69-7.301-2.69-3.159 0-5.636.897-7.429 2.69-1.793 1.708-2.689 4.099-2.689 7.173V147h-28.306v-38.296c0-3.074-.939-5.465-2.818-7.173-1.793-1.793-4.227-2.69-7.301-2.69-3.159 0-5.635.897-7.428 2.69-1.793 1.708-2.69 4.099-2.69 7.173V147h-28.434V74.762h28.434v9.734c2.049-3.073 4.824-5.55 8.325-7.428 3.587-1.879 7.77-2.818 12.552-2.818 5.209 0 9.82 1.153 13.833 3.458 4.013 2.22 7.215 5.38 9.606 9.478 2.647-3.757 6.02-6.83 10.118-9.222 4.099-2.476 8.624-3.714 13.577-3.714zm55.737-5.251c-4.952 0-8.923-1.324-11.911-3.97-2.989-2.648-4.483-5.978-4.483-9.991 0-4.099 1.494-7.471 4.483-10.118 2.988-2.733 6.959-4.099 11.911-4.099 4.867 0 8.795 1.366 11.784 4.099 2.988 2.647 4.482 6.02 4.482 10.118 0 4.013-1.494 7.343-4.482 9.99-2.989 2.647-6.917 3.97-11.784 3.97zm14.089 5.763V147h-28.434V74.762h28.434zm63.434-.512c8.283 0 14.729 2.775 19.34 8.325 4.697 5.55 7.045 13.065 7.045 22.543V147h-28.306v-38.296c0-3.416-.939-6.105-2.818-8.069-1.793-2.05-4.227-3.074-7.301-3.074-3.159 0-5.635 1.024-7.428 3.074-1.793 1.964-2.69 4.653-2.69 8.069V147h-28.434V74.762h28.434v11.015c2.22-3.415 5.166-6.19 8.838-8.325 3.757-2.135 8.197-3.202 13.32-3.202zm34.872 36.631c0-7.599 1.281-14.174 3.842-19.724 2.647-5.636 6.234-9.905 10.759-12.808 4.526-2.989 9.606-4.483 15.242-4.483 4.696 0 8.709.982 12.039 2.946 3.416 1.878 6.02 4.483 7.813 7.813V52.22h28.434V147h-28.434v-9.862c-1.793 3.33-4.397 5.977-7.813 7.941-3.33 1.878-7.343 2.818-12.039 2.818-5.636 0-10.716-1.452-15.242-4.355-4.525-2.989-8.112-7.258-10.759-12.808-2.561-5.636-3.842-12.253-3.842-19.853zm49.823 0c0-3.842-.982-6.831-2.945-8.965-1.964-2.135-4.483-3.203-7.557-3.203-3.074 0-5.593 1.068-7.557 3.203-1.964 2.134-2.946 5.123-2.946 8.965 0 3.843.982 6.831 2.946 8.966 1.964 2.135 4.483 3.202 7.557 3.202 3.074 0 5.593-1.067 7.557-3.202 1.963-2.135 2.945-5.123 2.945-8.966zm55.419-41.882c-4.952 0-8.923-1.324-11.911-3.97-2.989-2.648-4.483-5.978-4.483-9.991 0-4.099 1.494-7.471 4.483-10.118 2.988-2.733 6.959-4.099 11.911-4.099 4.867 0 8.795 1.366 11.784 4.099 2.988 2.647 4.483 6.02 4.483 10.118 0 4.013-1.495 7.343-4.483 9.99-2.989 2.647-6.917 3.97-11.784 3.97zm14.089 5.763V147h-28.434V74.762h28.434z" fill="#fff"/><path d="M183.024 34.899l-12.399 25.267c-6.908 14.06-22.508 23.158-39.736 23.158H93.212l-32.215 63.902h55.699l17.246-34.187h11.731l-17.232 34.187h49.82l17.258-34.187h11.73l-17.246 34.187h55.698c5.531-10.98 8.086-22.249 8.086-33.23 0-36.964-28.922-70.69-70.759-79.093l-.004-.004z" fill="#55FD91"/><path d="M80.814 84.89l.775-1.563 4.43-8.953h42.097c14.821 0 28.238-7.825 34.183-19.913l10.335-21.083 11.904-24.255 1.407-2.861c1.406-2.873-.949-6.093-4.487-6.093h-60.251c-17.232 0-32.828 9.087-39.736 23.158L56.433 74.374h.04L44.652 98.093 29.697 71.896H0l18.543 32.481c2.503 4.412 6.306 8.001 10.859 10.494 4.553 2.481 9.88 3.877 15.423 3.877 11.69 0 22.264-6.141 26.98-15.667l9.008-18.184m14.22-46.73c3.053 0 5.785 1.215 7.617 3.134 1.499 1.551 2.411 3.59 2.411 5.797 0 4.911-4.446 8.895-9.947 8.932h-.081c-5.543 0-10.029-3.995-10.029-8.932 0-4.936 4.486-8.931 10.029-8.931z" fill="#55FD91"/></svg>